<?xml version="1.0" encoding="UTF-8" standalone="no"?>
<!DOCTYPE svg PUBLIC "-//W3C//DTD SVG 1.1//EN"
 "http://www.w3.org/Graphics/SVG/1.1/DTD/svg11.dtd">
<!-- Generated by graphviz version 3.0.0 (20220226.1711)
 -->
<!-- Pages: 1 -->
<svg width="2543pt" height="620pt"
 viewBox="0.00 0.00 2542.81 620.00" xmlns="http://www.w3.org/2000/svg" xmlns:xlink="http://www.w3.org/1999/xlink">
<g id="graph0" class="graph" transform="scale(1 1) rotate(0) translate(4 616)">
<polygon fill="white" stroke="transparent" points="-4,4 -4,-616 2538.81,-616 2538.81,4 -4,4"/>
<!-- [root] aws_cognito_identity_pool.main (expand) -->
<g id="node1" class="node">
<title>[root] aws_cognito_identity_pool.main (expand)</title>
<polygon fill="none" stroke="black" points="684,-324 489,-324 489,-288 684,-288 684,-324"/>
<text text-anchor="middle" x="586.5" y="-302.3" font-family="Times,serif" font-size="14.00">aws_cognito_identity_pool.main</text>
</g>
<!-- [root] provider[&quot;registry.terraform.io/hashicorp/aws&quot;] -->
<g id="node26" class="node">
<title>[root] provider[&quot;registry.terraform.io/hashicorp/aws&quot;]</title>
<polygon fill="none" stroke="black" points="985.5,-108 732.96,-90 985.5,-72 1238.04,-90 985.5,-108"/>
<text text-anchor="middle" x="985.5" y="-86.3" font-family="Times,serif" font-size="14.00">provider[&quot;registry.terraform.io/hashicorp/aws&quot;]</text>
</g>
<!-- [root] aws_cognito_identity_pool.main (expand)&#45;&gt;[root] provider[&quot;registry.terraform.io/hashicorp/aws&quot;] -->
<g id="edge1" class="edge">
<title>[root] aws_cognito_identity_pool.main (expand)&#45;&gt;[root] provider[&quot;registry.terraform.io/hashicorp/aws&quot;]</title>
<path fill="none" stroke="black" d="M588.68,-287.88C593.92,-254.39 610.48,-180.33 657.5,-144 687.42,-120.88 772.73,-107.54 848.85,-100.03"/>
<polygon fill="black" stroke="black" points="849.42,-103.49 859.04,-99.05 848.75,-96.52 849.42,-103.49"/>
</g>
<!-- [root] aws_cognito_identity_pool_roles_attachment.main (expand) -->
<g id="node2" class="node">
<title>[root] aws_cognito_identity_pool_roles_attachment.main (expand)</title>
<polygon fill="none" stroke="black" points="522,-468 227,-468 227,-432 522,-432 522,-468"/>
<text text-anchor="middle" x="374.5" y="-446.3" font-family="Times,serif" font-size="14.00">aws_cognito_identity_pool_roles_attachment.main</text>
</g>
<!-- [root] aws_iam_role.authenticated (expand) -->
<g id="node7" class="node">
<title>[root] aws_iam_role.authenticated (expand)</title>
<polygon fill="none" stroke="black" points="459,-396 290,-396 290,-360 459,-360 459,-396"/>
<text text-anchor="middle" x="374.5" y="-374.3" font-family="Times,serif" font-size="14.00">aws_iam_role.authenticated</text>
</g>
<!-- [root] aws_cognito_identity_pool_roles_attachment.main (expand)&#45;&gt;[root] aws_iam_role.authenticated (expand) -->
<g id="edge2" class="edge">
<title>[root] aws_cognito_identity_pool_roles_attachment.main (expand)&#45;&gt;[root] aws_iam_role.authenticated (expand)</title>
<path fill="none" stroke="black" d="M374.5,-431.7C374.5,-423.98 374.5,-414.71 374.5,-406.11"/>
<polygon fill="black" stroke="black" points="378,-406.1 374.5,-396.1 371,-406.1 378,-406.1"/>
</g>
<!-- [root] aws_iam_role.unauthenticated (expand) -->
<g id="node9" class="node">
<title>[root] aws_iam_role.unauthenticated (expand)</title>
<polygon fill="none" stroke="black" points="677.5,-396 495.5,-396 495.5,-360 677.5,-360 677.5,-396"/>
<text text-anchor="middle" x="586.5" y="-374.3" font-family="Times,serif" font-size="14.00">aws_iam_role.unauthenticated</text>
</g>
<!-- [root] aws_cognito_identity_pool_roles_attachment.main (expand)&#45;&gt;[root] aws_iam_role.unauthenticated (expand) -->
<g id="edge3" class="edge">
<title>[root] aws_cognito_identity_pool_roles_attachment.main (expand)&#45;&gt;[root] aws_iam_role.unauthenticated (expand)</title>
<path fill="none" stroke="black" d="M426.09,-431.97C455.97,-422.1 493.76,-409.62 525.16,-399.25"/>
<polygon fill="black" stroke="black" points="526.28,-402.57 534.68,-396.11 524.09,-395.92 526.28,-402.57"/>
</g>
<!-- [root] aws_cognito_user_pool.classifieds (expand) -->
<g id="node3" class="node">
<title>[root] aws_cognito_user_pool.classifieds (expand)</title>
<polygon fill="none" stroke="black" points="870.5,-180 666.5,-180 666.5,-144 870.5,-144 870.5,-180"/>
<text text-anchor="middle" x="768.5" y="-158.3" font-family="Times,serif" font-size="14.00">aws_cognito_user_pool.classifieds</text>
</g>
<!-- [root] aws_cognito_user_pool.classifieds (expand)&#45;&gt;[root] provider[&quot;registry.terraform.io/hashicorp/aws&quot;] -->
<g id="edge4" class="edge">
<title>[root] aws_cognito_user_pool.classifieds (expand)&#45;&gt;[root] provider[&quot;registry.terraform.io/hashicorp/aws&quot;]</title>
<path fill="none" stroke="black" d="M821.31,-143.97C855.1,-133.06 898.8,-118.97 932.61,-108.06"/>
<polygon fill="black" stroke="black" points="933.87,-111.33 942.32,-104.93 931.72,-104.67 933.87,-111.33"/>
</g>
<!-- [root] aws_dynamodb_table.classifieds (expand) -->
<g id="node4" class="node">
<title>[root] aws_dynamodb_table.classifieds (expand)</title>
<polygon fill="none" stroke="black" points="995.5,-252 801.5,-252 801.5,-216 995.5,-216 995.5,-252"/>
<text text-anchor="middle" x="898.5" y="-230.3" font-family="Times,serif" font-size="14.00">aws_dynamodb_table.classifieds</text>
</g>
<!-- [root] aws_dynamodb_table.classifieds (expand)&#45;&gt;[root] provider[&quot;registry.terraform.io/hashicorp/aws&quot;] -->
<g id="edge5" class="edge">
<title>[root] aws_dynamodb_table.classifieds (expand)&#45;&gt;[root] provider[&quot;registry.terraform.io/hashicorp/aws&quot;]</title>
<path fill="none" stroke="black" d="M898.73,-215.98C899.72,-197.05 903.58,-166.23 917.5,-144 925.43,-131.34 937.51,-120.5 949.29,-111.98"/>
<polygon fill="black" stroke="black" points="951.48,-114.73 957.76,-106.2 947.53,-108.95 951.48,-114.73"/>
</g>
<!-- [root] aws_iam_policy.allow_dynamodb (expand) -->
<g id="node5" class="node">
<title>[root] aws_iam_policy.allow_dynamodb (expand)</title>
<polygon fill="none" stroke="black" points="1217,-252 1014,-252 1014,-216 1217,-216 1217,-252"/>
<text text-anchor="middle" x="1115.5" y="-230.3" font-family="Times,serif" font-size="14.00">aws_iam_policy.allow_dynamodb</text>
</g>
<!-- [root] data.aws_iam_policy_document.allow_dynamodb (expand) -->
<g id="node22" class="node">
<title>[root] data.aws_iam_policy_document.allow_dynamodb (expand)</title>
<polygon fill="none" stroke="black" points="1218,-180 927,-180 927,-144 1218,-144 1218,-180"/>
<text text-anchor="middle" x="1072.5" y="-158.3" font-family="Times,serif" font-size="14.00">data.aws_iam_policy_document.allow_dynamodb</text>
</g>
<!-- [root] aws_iam_policy.allow_dynamodb (expand)&#45;&gt;[root] data.aws_iam_policy_document.allow_dynamodb (expand) -->
<g id="edge6" class="edge">
<title>[root] aws_iam_policy.allow_dynamodb (expand)&#45;&gt;[root] data.aws_iam_policy_document.allow_dynamodb (expand)</title>
<path fill="none" stroke="black" d="M1104.87,-215.7C1099.87,-207.56 1093.81,-197.69 1088.29,-188.7"/>
<polygon fill="black" stroke="black" points="1091.22,-186.79 1083.01,-180.1 1085.26,-190.46 1091.22,-186.79"/>
</g>
<!-- [root] aws_iam_policy.lambda_logs (expand) -->
<g id="node6" class="node">
<title>[root] aws_iam_policy.lambda_logs (expand)</title>
<polygon fill="none" stroke="black" points="1459,-252 1280,-252 1280,-216 1459,-216 1459,-252"/>
<text text-anchor="middle" x="1369.5" y="-230.3" font-family="Times,serif" font-size="14.00">aws_iam_policy.lambda_logs</text>
</g>
<!-- [root] data.aws_iam_policy_document.lambda_logs (expand) -->
<g id="node23" class="node">
<title>[root] data.aws_iam_policy_document.lambda_logs (expand)</title>
<polygon fill="none" stroke="black" points="1502.5,-180 1236.5,-180 1236.5,-144 1502.5,-144 1502.5,-180"/>
<text text-anchor="middle" x="1369.5" y="-158.3" font-family="Times,serif" font-size="14.00">data.aws_iam_policy_document.lambda_logs</text>
</g>
<!-- [root] aws_iam_policy.lambda_logs (expand)&#45;&gt;[root] data.aws_iam_policy_document.lambda_logs (expand) -->
<g id="edge7" class="edge">
<title>[root] aws_iam_policy.lambda_logs (expand)&#45;&gt;[root] data.aws_iam_policy_document.lambda_logs (expand)</title>
<path fill="none" stroke="black" d="M1369.5,-215.7C1369.5,-207.98 1369.5,-198.71 1369.5,-190.11"/>
<polygon fill="black" stroke="black" points="1373,-190.1 1369.5,-180.1 1366,-190.1 1373,-190.1"/>
</g>
<!-- [root] aws_iam_role.authenticated (expand)&#45;&gt;[root] aws_cognito_identity_pool.main (expand) -->
<g id="edge8" class="edge">
<title>[root] aws_iam_role.authenticated (expand)&#45;&gt;[root] aws_cognito_identity_pool.main (expand)</title>
<path fill="none" stroke="black" d="M426.09,-359.97C455.97,-350.1 493.76,-337.62 525.16,-327.25"/>
<polygon fill="black" stroke="black" points="526.28,-330.57 534.68,-324.11 524.09,-323.92 526.28,-330.57"/>
</g>
<!-- [root] aws_iam_role.iam_for_classifieds_lambda (expand) -->
<g id="node8" class="node">
<title>[root] aws_iam_role.iam_for_classifieds_lambda (expand)</title>
<polygon fill="none" stroke="black" points="1744.5,-252 1494.5,-252 1494.5,-216 1744.5,-216 1744.5,-252"/>
<text text-anchor="middle" x="1619.5" y="-230.3" font-family="Times,serif" font-size="14.00">aws_iam_role.iam_for_classifieds_lambda</text>
</g>
<!-- [root] data.aws_iam_policy_document.policy (expand) -->
<g id="node24" class="node">
<title>[root] data.aws_iam_policy_document.policy (expand)</title>
<polygon fill="none" stroke="black" points="1750.5,-180 1520.5,-180 1520.5,-144 1750.5,-144 1750.5,-180"/>
<text text-anchor="middle" x="1635.5" y="-158.3" font-family="Times,serif" font-size="14.00">data.aws_iam_policy_document.policy</text>
</g>
<!-- [root] aws_iam_role.iam_for_classifieds_lambda (expand)&#45;&gt;[root] data.aws_iam_policy_document.policy (expand) -->
<g id="edge9" class="edge">
<title>[root] aws_iam_role.iam_for_classifieds_lambda (expand)&#45;&gt;[root] data.aws_iam_policy_document.policy (expand)</title>
<path fill="none" stroke="black" d="M1623.46,-215.7C1625.22,-207.98 1627.34,-198.71 1629.3,-190.11"/>
<polygon fill="black" stroke="black" points="1632.77,-190.63 1631.59,-180.1 1625.95,-189.07 1632.77,-190.63"/>
</g>
<!-- [root] aws_iam_role.unauthenticated (expand)&#45;&gt;[root] aws_cognito_identity_pool.main (expand) -->
<g id="edge10" class="edge">
<title>[root] aws_iam_role.unauthenticated (expand)&#45;&gt;[root] aws_cognito_identity_pool.main (expand)</title>
<path fill="none" stroke="black" d="M586.5,-359.7C586.5,-351.98 586.5,-342.71 586.5,-334.11"/>
<polygon fill="black" stroke="black" points="590,-334.1 586.5,-324.1 583,-334.1 590,-334.1"/>
</g>
<!-- [root] aws_iam_role_policy.authenticated (expand) -->
<g id="node10" class="node">
<title>[root] aws_iam_role_policy.authenticated (expand)</title>
<polygon fill="none" stroke="black" points="209,-468 0,-468 0,-432 209,-432 209,-468"/>
<text text-anchor="middle" x="104.5" y="-446.3" font-family="Times,serif" font-size="14.00">aws_iam_role_policy.authenticated</text>
</g>
<!-- [root] aws_iam_role_policy.authenticated (expand)&#45;&gt;[root] aws_iam_role.authenticated (expand) -->
<g id="edge11" class="edge">
<title>[root] aws_iam_role_policy.authenticated (expand)&#45;&gt;[root] aws_iam_role.authenticated (expand)</title>
<path fill="none" stroke="black" d="M170.2,-431.97C209,-421.91 258.26,-409.14 298.69,-398.65"/>
<polygon fill="black" stroke="black" points="299.7,-402.01 308.5,-396.11 297.94,-395.23 299.7,-402.01"/>
</g>
<!-- [root] aws_iam_role_policy.unauthenticated (expand) -->
<g id="node11" class="node">
<title>[root] aws_iam_role_policy.unauthenticated (expand)</title>
<polygon fill="none" stroke="black" points="762.5,-468 540.5,-468 540.5,-432 762.5,-432 762.5,-468"/>
<text text-anchor="middle" x="651.5" y="-446.3" font-family="Times,serif" font-size="14.00">aws_iam_role_policy.unauthenticated</text>
</g>
<!-- [root] aws_iam_role_policy.unauthenticated (expand)&#45;&gt;[root] aws_iam_role.unauthenticated (expand) -->
<g id="edge12" class="edge">
<title>[root] aws_iam_role_policy.unauthenticated (expand)&#45;&gt;[root] aws_iam_role.unauthenticated (expand)</title>
<path fill="none" stroke="black" d="M635.43,-431.7C627.56,-423.22 617.94,-412.86 609.33,-403.58"/>
<polygon fill="black" stroke="black" points="611.75,-401.05 602.38,-396.1 606.62,-405.81 611.75,-401.05"/>
</g>
<!-- [root] aws_iam_role_policy_attachment.allow_dynamodb_attach (expand) -->
<g id="node12" class="node">
<title>[root] aws_iam_role_policy_attachment.allow_dynamodb_attach (expand)</title>
<polygon fill="none" stroke="black" points="1194.5,-324 856.5,-324 856.5,-288 1194.5,-288 1194.5,-324"/>
<text text-anchor="middle" x="1025.5" y="-302.3" font-family="Times,serif" font-size="14.00">aws_iam_role_policy_attachment.allow_dynamodb_attach</text>
</g>
<!-- [root] aws_iam_role_policy_attachment.allow_dynamodb_attach (expand)&#45;&gt;[root] aws_iam_policy.allow_dynamodb (expand) -->
<g id="edge13" class="edge">
<title>[root] aws_iam_role_policy_attachment.allow_dynamodb_attach (expand)&#45;&gt;[root] aws_iam_policy.allow_dynamodb (expand)</title>
<path fill="none" stroke="black" d="M1047.75,-287.7C1059.08,-278.88 1073.03,-268.03 1085.32,-258.47"/>
<polygon fill="black" stroke="black" points="1087.76,-261.01 1093.51,-252.1 1083.47,-255.48 1087.76,-261.01"/>
</g>
<!-- [root] aws_iam_role_policy_attachment.allow_dynamodb_attach (expand)&#45;&gt;[root] aws_iam_role.iam_for_classifieds_lambda (expand) -->
<g id="edge14" class="edge">
<title>[root] aws_iam_role_policy_attachment.allow_dynamodb_attach (expand)&#45;&gt;[root] aws_iam_role.iam_for_classifieds_lambda (expand)</title>
<path fill="none" stroke="black" d="M1170.05,-287.97C1265.81,-276.68 1390.57,-261.98 1484.34,-250.93"/>
<polygon fill="black" stroke="black" points="1484.95,-254.38 1494.47,-249.73 1484.13,-247.43 1484.95,-254.38"/>
</g>
<!-- [root] aws_iam_role_policy_attachment.lambda_logs_attach (expand) -->
<g id="node13" class="node">
<title>[root] aws_iam_role_policy_attachment.lambda_logs_attach (expand)</title>
<polygon fill="none" stroke="black" points="1526,-324 1213,-324 1213,-288 1526,-288 1526,-324"/>
<text text-anchor="middle" x="1369.5" y="-302.3" font-family="Times,serif" font-size="14.00">aws_iam_role_policy_attachment.lambda_logs_attach</text>
</g>
<!-- [root] aws_iam_role_policy_attachment.lambda_logs_attach (expand)&#45;&gt;[root] aws_iam_policy.lambda_logs (expand) -->
<g id="edge15" class="edge">
<title>[root] aws_iam_role_policy_attachment.lambda_logs_attach (expand)&#45;&gt;[root] aws_iam_policy.lambda_logs (expand)</title>
<path fill="none" stroke="black" d="M1369.5,-287.7C1369.5,-279.98 1369.5,-270.71 1369.5,-262.11"/>
<polygon fill="black" stroke="black" points="1373,-262.1 1369.5,-252.1 1366,-262.1 1373,-262.1"/>
</g>
<!-- [root] aws_iam_role_policy_attachment.lambda_logs_attach (expand)&#45;&gt;[root] aws_iam_role.iam_for_classifieds_lambda (expand) -->
<g id="edge16" class="edge">
<title>[root] aws_iam_role_policy_attachment.lambda_logs_attach (expand)&#45;&gt;[root] aws_iam_role.iam_for_classifieds_lambda (expand)</title>
<path fill="none" stroke="black" d="M1430.34,-287.97C1466.03,-277.97 1511.29,-265.3 1548.59,-254.85"/>
<polygon fill="black" stroke="black" points="1549.7,-258.18 1558.39,-252.11 1547.82,-251.44 1549.7,-258.18"/>
</g>
<!-- [root] aws_lambda_function.classifieds_lambda (expand) -->
<g id="node14" class="node">
<title>[root] aws_lambda_function.classifieds_lambda (expand)</title>
<polygon fill="none" stroke="black" points="1787,-324 1544,-324 1544,-288 1787,-288 1787,-324"/>
<text text-anchor="middle" x="1665.5" y="-302.3" font-family="Times,serif" font-size="14.00">aws_lambda_function.classifieds_lambda</text>
</g>
<!-- [root] aws_lambda_function.classifieds_lambda (expand)&#45;&gt;[root] aws_iam_role.iam_for_classifieds_lambda (expand) -->
<g id="edge17" class="edge">
<title>[root] aws_lambda_function.classifieds_lambda (expand)&#45;&gt;[root] aws_iam_role.iam_for_classifieds_lambda (expand)</title>
<path fill="none" stroke="black" d="M1654.13,-287.7C1648.78,-279.56 1642.3,-269.69 1636.39,-260.7"/>
<polygon fill="black" stroke="black" points="1639.16,-258.54 1630.74,-252.1 1633.31,-262.38 1639.16,-258.54"/>
</g>
<!-- [root] data.archive_file.zip (expand) -->
<g id="node21" class="node">
<title>[root] data.archive_file.zip (expand)</title>
<polygon fill="none" stroke="black" points="2329,-252 2202,-252 2202,-216 2329,-216 2329,-252"/>
<text text-anchor="middle" x="2265.5" y="-230.3" font-family="Times,serif" font-size="14.00">data.archive_file.zip</text>
</g>
<!-- [root] aws_lambda_function.classifieds_lambda (expand)&#45;&gt;[root] data.archive_file.zip (expand) -->
<g id="edge18" class="edge">
<title>[root] aws_lambda_function.classifieds_lambda (expand)&#45;&gt;[root] data.archive_file.zip (expand)</title>
<path fill="none" stroke="black" d="M1787.17,-289.14C1790.31,-288.75 1793.43,-288.37 1796.5,-288 1936.06,-271.06 2099.21,-253.02 2191.65,-242.96"/>
<polygon fill="black" stroke="black" points="2192.18,-246.43 2201.74,-241.87 2191.42,-239.47 2192.18,-246.43"/>
</g>
<!-- [root] aws_lambda_permission.allow_lex (expand) -->
<g id="node15" class="node">
<title>[root] aws_lambda_permission.allow_lex (expand)</title>
<polygon fill="none" stroke="black" points="1456,-468 1247,-468 1247,-432 1456,-432 1456,-468"/>
<text text-anchor="middle" x="1351.5" y="-446.3" font-family="Times,serif" font-size="14.00">aws_lambda_permission.allow_lex</text>
</g>
<!-- [root] aws_lambda_permission.allow_lex (expand)&#45;&gt;[root] aws_lambda_function.classifieds_lambda (expand) -->
<g id="edge19" class="edge">
<title>[root] aws_lambda_permission.allow_lex (expand)&#45;&gt;[root] aws_lambda_function.classifieds_lambda (expand)</title>
<path fill="none" stroke="black" d="M1389.38,-431.87C1446.78,-405.91 1555.73,-356.64 1618.24,-328.37"/>
<polygon fill="black" stroke="black" points="1619.82,-331.5 1627.49,-324.19 1616.94,-325.12 1619.82,-331.5"/>
</g>
<!-- [root] aws_lex_bot.classifieds (expand) -->
<g id="node16" class="node">
<title>[root] aws_lex_bot.classifieds (expand)</title>
<polygon fill="none" stroke="black" points="1919.5,-468 1775.5,-468 1775.5,-432 1919.5,-432 1919.5,-468"/>
<text text-anchor="middle" x="1847.5" y="-446.3" font-family="Times,serif" font-size="14.00">aws_lex_bot.classifieds</text>
</g>
<!-- [root] aws_lex_intent.create_post (expand) -->
<g id="node17" class="node">
<title>[root] aws_lex_intent.create_post (expand)</title>
<polygon fill="none" stroke="black" points="1747.5,-396 1583.5,-396 1583.5,-360 1747.5,-360 1747.5,-396"/>
<text text-anchor="middle" x="1665.5" y="-374.3" font-family="Times,serif" font-size="14.00">aws_lex_intent.create_post</text>
</g>
<!-- [root] aws_lex_bot.classifieds (expand)&#45;&gt;[root] aws_lex_intent.create_post (expand) -->
<g id="edge20" class="edge">
<title>[root] aws_lex_bot.classifieds (expand)&#45;&gt;[root] aws_lex_intent.create_post (expand)</title>
<path fill="none" stroke="black" d="M1802.98,-431.88C1777.77,-422.18 1746.05,-409.98 1719.43,-399.74"/>
<polygon fill="black" stroke="black" points="1720.47,-396.39 1709.88,-396.07 1717.95,-402.92 1720.47,-396.39"/>
</g>
<!-- [root] aws_lex_intent.delete_post (expand) -->
<g id="node18" class="node">
<title>[root] aws_lex_intent.delete_post (expand)</title>
<polygon fill="none" stroke="black" points="1929.5,-396 1765.5,-396 1765.5,-360 1929.5,-360 1929.5,-396"/>
<text text-anchor="middle" x="1847.5" y="-374.3" font-family="Times,serif" font-size="14.00">aws_lex_intent.delete_post</text>
</g>
<!-- [root] aws_lex_bot.classifieds (expand)&#45;&gt;[root] aws_lex_intent.delete_post (expand) -->
<g id="edge21" class="edge">
<title>[root] aws_lex_bot.classifieds (expand)&#45;&gt;[root] aws_lex_intent.delete_post (expand)</title>
<path fill="none" stroke="black" d="M1847.5,-431.7C1847.5,-423.98 1847.5,-414.71 1847.5,-406.11"/>
<polygon fill="black" stroke="black" points="1851,-406.1 1847.5,-396.1 1844,-406.1 1851,-406.1"/>
</g>
<!-- [root] aws_lex_intent.read_post (expand) -->
<g id="node19" class="node">
<title>[root] aws_lex_intent.read_post (expand)</title>
<polygon fill="none" stroke="black" points="2103,-396 1948,-396 1948,-360 2103,-360 2103,-396"/>
<text text-anchor="middle" x="2025.5" y="-374.3" font-family="Times,serif" font-size="14.00">aws_lex_intent.read_post</text>
</g>
<!-- [root] aws_lex_bot.classifieds (expand)&#45;&gt;[root] aws_lex_intent.read_post (expand) -->
<g id="edge22" class="edge">
<title>[root] aws_lex_bot.classifieds (expand)&#45;&gt;[root] aws_lex_intent.read_post (expand)</title>
<path fill="none" stroke="black" d="M1891.04,-431.88C1915.7,-422.18 1946.72,-409.98 1972.75,-399.74"/>
<polygon fill="black" stroke="black" points="1974.07,-402.99 1982.1,-396.07 1971.51,-396.47 1974.07,-402.99"/>
</g>
<!-- [root] aws_lex_intent.update_post (expand) -->
<g id="node20" class="node">
<title>[root] aws_lex_intent.update_post (expand)</title>
<polygon fill="none" stroke="black" points="2288,-396 2121,-396 2121,-360 2288,-360 2288,-396"/>
<text text-anchor="middle" x="2204.5" y="-374.3" font-family="Times,serif" font-size="14.00">aws_lex_intent.update_post</text>
</g>
<!-- [root] aws_lex_bot.classifieds (expand)&#45;&gt;[root] aws_lex_intent.update_post (expand) -->
<g id="edge23" class="edge">
<title>[root] aws_lex_bot.classifieds (expand)&#45;&gt;[root] aws_lex_intent.update_post (expand)</title>
<path fill="none" stroke="black" d="M1919.74,-434.83C1974.85,-424.03 2051.19,-409.06 2110.95,-397.34"/>
<polygon fill="black" stroke="black" points="2111.64,-400.78 2120.77,-395.42 2110.29,-393.91 2111.64,-400.78"/>
</g>
<!-- [root] aws_lex_intent.create_post (expand)&#45;&gt;[root] aws_lambda_function.classifieds_lambda (expand) -->
<g id="edge24" class="edge">
<title>[root] aws_lex_intent.create_post (expand)&#45;&gt;[root] aws_lambda_function.classifieds_lambda (expand)</title>
<path fill="none" stroke="black" d="M1665.5,-359.7C1665.5,-351.98 1665.5,-342.71 1665.5,-334.11"/>
<polygon fill="black" stroke="black" points="1669,-334.1 1665.5,-324.1 1662,-334.1 1669,-334.1"/>
</g>
<!-- [root] local.fulfillment_activity_type (expand) -->
<g id="node28" class="node">
<title>[root] local.fulfillment_activity_type (expand)</title>
<ellipse fill="none" stroke="black" cx="1979.5" cy="-306" rx="174.37" ry="18"/>
<text text-anchor="middle" x="1979.5" y="-302.3" font-family="Times,serif" font-size="14.00">[root] local.fulfillment_activity_type (expand)</text>
</g>
<!-- [root] aws_lex_intent.create_post (expand)&#45;&gt;[root] local.fulfillment_activity_type (expand) -->
<g id="edge25" class="edge">
<title>[root] aws_lex_intent.create_post (expand)&#45;&gt;[root] local.fulfillment_activity_type (expand)</title>
<path fill="none" stroke="black" d="M1741.91,-359.97C1789.8,-349.29 1851.42,-335.55 1899.91,-324.74"/>
<polygon fill="black" stroke="black" points="1900.73,-328.15 1909.73,-322.55 1899.21,-321.31 1900.73,-328.15"/>
</g>
<!-- [root] local.message_version (expand) -->
<g id="node29" class="node">
<title>[root] local.message_version (expand)</title>
<ellipse fill="none" stroke="black" cx="2318.5" cy="-306" rx="146.77" ry="18"/>
<text text-anchor="middle" x="2318.5" y="-302.3" font-family="Times,serif" font-size="14.00">[root] local.message_version (expand)</text>
</g>
<!-- [root] aws_lex_intent.create_post (expand)&#45;&gt;[root] local.message_version (expand) -->
<g id="edge26" class="edge">
<title>[root] aws_lex_intent.create_post (expand)&#45;&gt;[root] local.message_version (expand)</title>
<path fill="none" stroke="black" d="M1747.78,-361.26C1750.72,-360.82 1753.63,-360.39 1756.5,-360 1935.97,-335.34 1982.23,-341.81 2162.5,-324 2175.92,-322.67 2189.98,-321.23 2203.93,-319.75"/>
<polygon fill="black" stroke="black" points="2204.48,-323.21 2214.06,-318.67 2203.74,-316.25 2204.48,-323.21"/>
</g>
<!-- [root] aws_lex_intent.delete_post (expand)&#45;&gt;[root] aws_lambda_function.classifieds_lambda (expand) -->
<g id="edge27" class="edge">
<title>[root] aws_lex_intent.delete_post (expand)&#45;&gt;[root] aws_lambda_function.classifieds_lambda (expand)</title>
<path fill="none" stroke="black" d="M1802.98,-359.88C1777.77,-350.18 1746.05,-337.98 1719.43,-327.74"/>
<polygon fill="black" stroke="black" points="1720.47,-324.39 1709.88,-324.07 1717.95,-330.92 1720.47,-324.39"/>
</g>
<!-- [root] aws_lex_intent.delete_post (expand)&#45;&gt;[root] local.fulfillment_activity_type (expand) -->
<g id="edge28" class="edge">
<title>[root] aws_lex_intent.delete_post (expand)&#45;&gt;[root] local.fulfillment_activity_type (expand)</title>
<path fill="none" stroke="black" d="M1879.79,-359.88C1897.63,-350.41 1919.96,-338.57 1938.97,-328.49"/>
<polygon fill="black" stroke="black" points="1940.8,-331.48 1948,-323.71 1937.52,-325.3 1940.8,-331.48"/>
</g>
<!-- [root] aws_lex_intent.delete_post (expand)&#45;&gt;[root] local.message_version (expand) -->
<g id="edge29" class="edge">
<title>[root] aws_lex_intent.delete_post (expand)&#45;&gt;[root] local.message_version (expand)</title>
<path fill="none" stroke="black" d="M1929.81,-361.45C1932.74,-360.95 1935.64,-360.47 1938.5,-360 2029.89,-345.1 2134.07,-330.75 2210.21,-320.75"/>
<polygon fill="black" stroke="black" points="2210.83,-324.2 2220.29,-319.43 2209.92,-317.26 2210.83,-324.2"/>
</g>
<!-- [root] aws_lex_intent.read_post (expand)&#45;&gt;[root] aws_lambda_function.classifieds_lambda (expand) -->
<g id="edge30" class="edge">
<title>[root] aws_lex_intent.read_post (expand)&#45;&gt;[root] aws_lambda_function.classifieds_lambda (expand)</title>
<path fill="none" stroke="black" d="M1947.71,-361.8C1944.6,-361.19 1941.52,-360.59 1938.5,-360 1880.4,-348.68 1815.34,-336.05 1763.3,-325.96"/>
<polygon fill="black" stroke="black" points="1763.9,-322.51 1753.41,-324.04 1762.56,-329.38 1763.9,-322.51"/>
</g>
<!-- [root] aws_lex_intent.read_post (expand)&#45;&gt;[root] local.fulfillment_activity_type (expand) -->
<g id="edge31" class="edge">
<title>[root] aws_lex_intent.read_post (expand)&#45;&gt;[root] local.fulfillment_activity_type (expand)</title>
<path fill="none" stroke="black" d="M2014.13,-359.7C2008.78,-351.56 2002.3,-341.69 1996.39,-332.7"/>
<polygon fill="black" stroke="black" points="1999.16,-330.54 1990.74,-324.1 1993.31,-334.38 1999.16,-330.54"/>
</g>
<!-- [root] aws_lex_intent.read_post (expand)&#45;&gt;[root] local.message_version (expand) -->
<g id="edge32" class="edge">
<title>[root] aws_lex_intent.read_post (expand)&#45;&gt;[root] local.message_version (expand)</title>
<path fill="none" stroke="black" d="M2096.8,-359.97C2141.62,-349.26 2199.32,-335.47 2244.62,-324.65"/>
<polygon fill="black" stroke="black" points="2245.47,-328.05 2254.38,-322.32 2243.84,-321.24 2245.47,-328.05"/>
</g>
<!-- [root] aws_lex_intent.update_post (expand)&#45;&gt;[root] aws_lambda_function.classifieds_lambda (expand) -->
<g id="edge33" class="edge">
<title>[root] aws_lex_intent.update_post (expand)&#45;&gt;[root] aws_lambda_function.classifieds_lambda (expand)</title>
<path fill="none" stroke="black" d="M2120.89,-361.44C2117.72,-360.94 2114.58,-360.46 2111.5,-360 1975.38,-339.8 1938.11,-341 1797.48,-324.1"/>
<polygon fill="black" stroke="black" points="1797.52,-320.58 1787.17,-322.85 1796.68,-327.53 1797.52,-320.58"/>
</g>
<!-- [root] aws_lex_intent.update_post (expand)&#45;&gt;[root] local.fulfillment_activity_type (expand) -->
<g id="edge34" class="edge">
<title>[root] aws_lex_intent.update_post (expand)&#45;&gt;[root] local.fulfillment_activity_type (expand)</title>
<path fill="none" stroke="black" d="M2149.75,-359.97C2117.07,-349.8 2075.48,-336.86 2041.58,-326.31"/>
<polygon fill="black" stroke="black" points="2042.37,-322.9 2031.78,-323.27 2040.29,-329.58 2042.37,-322.9"/>
</g>
<!-- [root] aws_lex_intent.update_post (expand)&#45;&gt;[root] local.message_version (expand) -->
<g id="edge35" class="edge">
<title>[root] aws_lex_intent.update_post (expand)&#45;&gt;[root] local.message_version (expand)</title>
<path fill="none" stroke="black" d="M2232.39,-359.88C2247.52,-350.59 2266.38,-339 2282.6,-329.04"/>
<polygon fill="black" stroke="black" points="2284.6,-331.92 2291.29,-323.71 2280.94,-325.96 2284.6,-331.92"/>
</g>
<!-- [root] provider[&quot;registry.terraform.io/hashicorp/archive&quot;] -->
<g id="node25" class="node">
<title>[root] provider[&quot;registry.terraform.io/hashicorp/archive&quot;]</title>
<polygon fill="none" stroke="black" points="2265.5,-180 1996.37,-162 2265.5,-144 2534.63,-162 2265.5,-180"/>
<text text-anchor="middle" x="2265.5" y="-158.3" font-family="Times,serif" font-size="14.00">provider[&quot;registry.terraform.io/hashicorp/archive&quot;]</text>
</g>
<!-- [root] data.archive_file.zip (expand)&#45;&gt;[root] provider[&quot;registry.terraform.io/hashicorp/archive&quot;] -->
<g id="edge36" class="edge">
<title>[root] data.archive_file.zip (expand)&#45;&gt;[root] provider[&quot;registry.terraform.io/hashicorp/archive&quot;]</title>
<path fill="none" stroke="black" d="M2265.5,-215.7C2265.5,-207.98 2265.5,-198.71 2265.5,-190.11"/>
<polygon fill="black" stroke="black" points="2269,-190.1 2265.5,-180.1 2262,-190.1 2269,-190.1"/>
</g>
<!-- [root] data.aws_iam_policy_document.allow_dynamodb (expand)&#45;&gt;[root] provider[&quot;registry.terraform.io/hashicorp/aws&quot;] -->
<g id="edge37" class="edge">
<title>[root] data.aws_iam_policy_document.allow_dynamodb (expand)&#45;&gt;[root] provider[&quot;registry.terraform.io/hashicorp/aws&quot;]</title>
<path fill="none" stroke="black" d="M1050.99,-143.7C1039.55,-134.49 1025.34,-123.06 1013.09,-113.2"/>
<polygon fill="black" stroke="black" points="1014.96,-110.21 1004.98,-106.67 1010.57,-115.67 1014.96,-110.21"/>
</g>
<!-- [root] data.aws_iam_policy_document.lambda_logs (expand)&#45;&gt;[root] provider[&quot;registry.terraform.io/hashicorp/aws&quot;] -->
<g id="edge38" class="edge">
<title>[root] data.aws_iam_policy_document.lambda_logs (expand)&#45;&gt;[root] provider[&quot;registry.terraform.io/hashicorp/aws&quot;]</title>
<path fill="none" stroke="black" d="M1276.05,-143.97C1210.65,-132.04 1124.32,-116.31 1062.79,-105.09"/>
<polygon fill="black" stroke="black" points="1063.22,-101.61 1052.76,-103.26 1061.97,-108.5 1063.22,-101.61"/>
</g>
<!-- [root] data.aws_iam_policy_document.policy (expand)&#45;&gt;[root] provider[&quot;registry.terraform.io/hashicorp/aws&quot;] -->
<g id="edge39" class="edge">
<title>[root] data.aws_iam_policy_document.policy (expand)&#45;&gt;[root] provider[&quot;registry.terraform.io/hashicorp/aws&quot;]</title>
<path fill="none" stroke="black" d="M1520.34,-145.07C1517.36,-144.7 1514.41,-144.35 1511.5,-144 1370.45,-127.23 1207.71,-111.37 1101.05,-101.44"/>
<polygon fill="black" stroke="black" points="1101.19,-97.94 1090.91,-100.5 1100.54,-104.91 1101.19,-97.94"/>
</g>
<!-- [root] var.aws_region -->
<g id="node27" class="node">
<title>[root] var.aws_region</title>
<polygon fill="none" stroke="black" points="1029,-36 936,-36 936,0 1035,0 1035,-30 1029,-36"/>
<polyline fill="none" stroke="black" points="1029,-36 1029,-30 "/>
<polyline fill="none" stroke="black" points="1035,-30 1029,-30 "/>
<text text-anchor="middle" x="985.5" y="-14.3" font-family="Times,serif" font-size="14.00">var.aws_region</text>
</g>
<!-- [root] provider[&quot;registry.terraform.io/hashicorp/aws&quot;]&#45;&gt;[root] var.aws_region -->
<g id="edge50" class="edge">
<title>[root] provider[&quot;registry.terraform.io/hashicorp/aws&quot;]&#45;&gt;[root] var.aws_region</title>
<path fill="none" stroke="black" d="M985.5,-71.7C985.5,-63.98 985.5,-54.71 985.5,-46.11"/>
<polygon fill="black" stroke="black" points="989,-46.1 985.5,-36.1 982,-46.1 989,-46.1"/>
</g>
<!-- [root] provider[&quot;registry.terraform.io/hashicorp/archive&quot;] (close) -->
<g id="node30" class="node">
<title>[root] provider[&quot;registry.terraform.io/hashicorp/archive&quot;] (close)</title>
<ellipse fill="none" stroke="black" cx="1952.5" cy="-522" rx="239.36" ry="18"/>
<text text-anchor="middle" x="1952.5" y="-518.3" font-family="Times,serif" font-size="14.00">[root] provider[&quot;registry.terraform.io/hashicorp/archive&quot;] (close)</text>
</g>
<!-- [root] provider[&quot;registry.terraform.io/hashicorp/archive&quot;] (close)&#45;&gt;[root] data.archive_file.zip (expand) -->
<g id="edge40" class="edge">
<title>[root] provider[&quot;registry.terraform.io/hashicorp/archive&quot;] (close)&#45;&gt;[root] data.archive_file.zip (expand)</title>
<path fill="none" stroke="black" d="M2112.27,-508.57C2234.42,-489.64 2394.95,-442.24 2474.5,-324 2510.87,-269.94 2413.23,-248.58 2339.41,-240.24"/>
<polygon fill="black" stroke="black" points="2339.49,-236.73 2329.17,-239.15 2338.75,-243.69 2339.49,-236.73"/>
</g>
<!-- [root] provider[&quot;registry.terraform.io/hashicorp/aws&quot;] (close) -->
<g id="node31" class="node">
<title>[root] provider[&quot;registry.terraform.io/hashicorp/aws&quot;] (close)</title>
<ellipse fill="none" stroke="black" cx="926.5" cy="-522" rx="227.46" ry="18"/>
<text text-anchor="middle" x="926.5" y="-518.3" font-family="Times,serif" font-size="14.00">[root] provider[&quot;registry.terraform.io/hashicorp/aws&quot;] (close)</text>
</g>
<!-- [root] provider[&quot;registry.terraform.io/hashicorp/aws&quot;] (close)&#45;&gt;[root] aws_cognito_identity_pool_roles_attachment.main (expand) -->
<g id="edge41" class="edge">
<title>[root] provider[&quot;registry.terraform.io/hashicorp/aws&quot;] (close)&#45;&gt;[root] aws_cognito_identity_pool_roles_attachment.main (expand)</title>
<path fill="none" stroke="black" d="M811.79,-506.45C726.84,-495.68 610.5,-480.93 519.17,-469.35"/>
<polygon fill="black" stroke="black" points="519.37,-465.84 509,-468.06 518.48,-472.79 519.37,-465.84"/>
</g>
<!-- [root] provider[&quot;registry.terraform.io/hashicorp/aws&quot;] (close)&#45;&gt;[root] aws_cognito_user_pool.classifieds (expand) -->
<g id="edge42" class="edge">
<title>[root] provider[&quot;registry.terraform.io/hashicorp/aws&quot;] (close)&#45;&gt;[root] aws_cognito_user_pool.classifieds (expand)</title>
<path fill="none" stroke="black" d="M908.3,-503.6C898.8,-493.81 887.53,-480.97 879.5,-468 821.42,-374.15 787.23,-245.36 774.38,-190.04"/>
<polygon fill="black" stroke="black" points="777.79,-189.26 772.16,-180.29 770.97,-190.81 777.79,-189.26"/>
</g>
<!-- [root] provider[&quot;registry.terraform.io/hashicorp/aws&quot;] (close)&#45;&gt;[root] aws_dynamodb_table.classifieds (expand) -->
<g id="edge43" class="edge">
<title>[root] provider[&quot;registry.terraform.io/hashicorp/aws&quot;] (close)&#45;&gt;[root] aws_dynamodb_table.classifieds (expand)</title>
<path fill="none" stroke="black" d="M916.95,-503.77C899.04,-470.34 860.98,-393.83 847.5,-324 844.47,-308.29 841.52,-302.84 847.5,-288 851.85,-277.21 859.56,-267.39 867.69,-259.21"/>
<polygon fill="black" stroke="black" points="870.29,-261.57 875.2,-252.18 865.5,-256.46 870.29,-261.57"/>
</g>
<!-- [root] provider[&quot;registry.terraform.io/hashicorp/aws&quot;] (close)&#45;&gt;[root] aws_iam_role_policy.authenticated (expand) -->
<g id="edge44" class="edge">
<title>[root] provider[&quot;registry.terraform.io/hashicorp/aws&quot;] (close)&#45;&gt;[root] aws_iam_role_policy.authenticated (expand)</title>
<path fill="none" stroke="black" d="M744.74,-511.16C603.9,-502.65 403.67,-488.62 219.28,-468.16"/>
<polygon fill="black" stroke="black" points="219.45,-464.65 209.12,-467.02 218.67,-471.61 219.45,-464.65"/>
</g>
<!-- [root] provider[&quot;registry.terraform.io/hashicorp/aws&quot;] (close)&#45;&gt;[root] aws_iam_role_policy.unauthenticated (expand) -->
<g id="edge45" class="edge">
<title>[root] provider[&quot;registry.terraform.io/hashicorp/aws&quot;] (close)&#45;&gt;[root] aws_iam_role_policy.unauthenticated (expand)</title>
<path fill="none" stroke="black" d="M862.37,-504.68C822.41,-494.5 770.75,-481.35 728.56,-470.62"/>
<polygon fill="black" stroke="black" points="729.16,-467.16 718.61,-468.08 727.44,-473.94 729.16,-467.16"/>
</g>
<!-- [root] provider[&quot;registry.terraform.io/hashicorp/aws&quot;] (close)&#45;&gt;[root] aws_iam_role_policy_attachment.allow_dynamodb_attach (expand) -->
<g id="edge46" class="edge">
<title>[root] provider[&quot;registry.terraform.io/hashicorp/aws&quot;] (close)&#45;&gt;[root] aws_iam_role_policy_attachment.allow_dynamodb_attach (expand)</title>
<path fill="none" stroke="black" d="M934.43,-503.85C951.67,-466.6 992.62,-378.07 1013.22,-333.54"/>
<polygon fill="black" stroke="black" points="1016.51,-334.78 1017.53,-324.23 1010.15,-331.84 1016.51,-334.78"/>
</g>
<!-- [root] provider[&quot;registry.terraform.io/hashicorp/aws&quot;] (close)&#45;&gt;[root] aws_iam_role_policy_attachment.lambda_logs_attach (expand) -->
<g id="edge47" class="edge">
<title>[root] provider[&quot;registry.terraform.io/hashicorp/aws&quot;] (close)&#45;&gt;[root] aws_iam_role_policy_attachment.lambda_logs_attach (expand)</title>
<path fill="none" stroke="black" d="M961.26,-504.21C1040.97,-465.71 1236.8,-371.1 1325.08,-328.46"/>
<polygon fill="black" stroke="black" points="1326.81,-331.51 1334.29,-324.01 1323.76,-325.21 1326.81,-331.51"/>
</g>
<!-- [root] provider[&quot;registry.terraform.io/hashicorp/aws&quot;] (close)&#45;&gt;[root] aws_lambda_permission.allow_lex (expand) -->
<g id="edge48" class="edge">
<title>[root] provider[&quot;registry.terraform.io/hashicorp/aws&quot;] (close)&#45;&gt;[root] aws_lambda_permission.allow_lex (expand)</title>
<path fill="none" stroke="black" d="M1020.29,-505.55C1084.6,-494.96 1170.26,-480.85 1238.35,-469.64"/>
<polygon fill="black" stroke="black" points="1238.97,-473.08 1248.27,-468 1237.83,-466.17 1238.97,-473.08"/>
</g>
<!-- [root] provider[&quot;registry.terraform.io/hashicorp/aws&quot;] (close)&#45;&gt;[root] aws_lex_bot.classifieds (expand) -->
<g id="edge49" class="edge">
<title>[root] provider[&quot;registry.terraform.io/hashicorp/aws&quot;] (close)&#45;&gt;[root] aws_lex_bot.classifieds (expand)</title>
<path fill="none" stroke="black" d="M1084.3,-509.01C1281.66,-494.01 1612.17,-468.89 1765.18,-457.26"/>
<polygon fill="black" stroke="black" points="1765.73,-460.72 1775.44,-456.48 1765.2,-453.75 1765.73,-460.72"/>
</g>
<!-- [root] root -->
<g id="node32" class="node">
<title>[root] root</title>
<ellipse fill="none" stroke="black" cx="1168.5" cy="-594" rx="47.39" ry="18"/>
<text text-anchor="middle" x="1168.5" y="-590.3" font-family="Times,serif" font-size="14.00">[root] root</text>
</g>
<!-- [root] root&#45;&gt;[root] provider[&quot;registry.terraform.io/hashicorp/archive&quot;] (close) -->
<g id="edge51" class="edge">
<title>[root] root&#45;&gt;[root] provider[&quot;registry.terraform.io/hashicorp/archive&quot;] (close)</title>
<path fill="none" stroke="black" d="M1214.04,-588.93C1324.86,-579.04 1612.79,-553.33 1794.63,-537.1"/>
<polygon fill="black" stroke="black" points="1795.18,-540.56 1804.83,-536.18 1794.56,-533.59 1795.18,-540.56"/>
</g>
<!-- [root] root&#45;&gt;[root] provider[&quot;registry.terraform.io/hashicorp/aws&quot;] (close) -->
<g id="edge52" class="edge">
<title>[root] root&#45;&gt;[root] provider[&quot;registry.terraform.io/hashicorp/aws&quot;] (close)</title>
<path fill="none" stroke="black" d="M1132.01,-582.44C1095.35,-571.84 1038.02,-555.26 993.22,-542.3"/>
<polygon fill="black" stroke="black" points="994.15,-538.92 983.57,-539.51 992.21,-545.65 994.15,-538.92"/>
</g>
</g>
</svg>
